<svg xmlns="http://www.w3.org/2000/svg" viewBox="0 0 509.33 195.56"><defs><style>.cls-1,.cls-3{fill:#ffac27;}.cls-2{fill:#222;}.cls-3{fill-rule:evenodd;}</style></defs><g id="Layer_2" data-name="Layer 2"><g id="Layer_1-2" data-name="Layer 1"><path class="cls-1" d="M259.55,193.8v1.4l-5.59,0-.06-10.07h1.48l.05,8.66Z"/><path class="cls-1" d="M264.49,185.1H266l.06,10.07h-1.48Z"/><path class="cls-1" d="M272.5,186.45l0,2.84,3.43,0v1.4l-3.43,0,0,4.42h-1.47L271,185.06l5.51,0v1.4Z"/><path class="cls-1" d="M282.94,186.39l0,2.79,3.15,0v1.41l-3.14,0,0,3.06,4,0V195l-5.53,0L281.44,185l5.53,0v1.4Z"/><path class="cls-1" d="M292.8,192.07a1.72,1.72,0,0,0,1.86,1.65c1,0,1.64-.55,1.64-1.27,0-.93-.88-1.37-2.06-2-1.89-1.05-2.72-1.74-2.73-3.15a2.68,2.68,0,0,1,2.91-2.55,2.91,2.91,0,0,1,3,2.9h-1.48a1.46,1.46,0,0,0-1.49-1.5c-.8,0-1.45.47-1.44,1.18,0,.91.7,1.23,1.77,1.78,1.83,1,3,1.79,3,3.35s-1.37,2.62-3.11,2.63a3.15,3.15,0,0,1-3.34-3Z"/><path class="cls-1" d="M308.24,186.23l-2.42,0,.05,8.66H304.4l-.06-8.66h-2.42v-1.4l6.32,0Z"/><path class="cls-1" d="M321.52,184.74l-3.62,6,0,4.12h-1.48l0-4.11-3.7-5.93h1.68l2.75,4.41,2.69-4.45Z"/><path class="cls-1" d="M332,193.34v1.41l-5.59,0-.06-10.07h1.47l.06,8.67Z"/><path class="cls-1" d="M338.34,186l0,2.8,3.15,0v1.4l-3.15,0,0,3.06,4,0v1.4l-5.53,0-.07-10.07,5.53,0V186Z"/><path class="cls-1" d="M365.66,184.47l.07,10.07h-1.49l-.05-7.38-3.34,5.45h-.64l-3.41-5.41.05,7.39h-1.49l-.06-10.07h1.49l3.72,5.88,3.66-5.92Z"/><path class="cls-1" d="M377.27,192.11l-4.17,0-.83,2.36h-1.53l3.56-10.09H376l3.69,10h-1.53Zm-.5-1.4-1.62-4.37-1.54,4.39Z"/><path class="cls-1" d="M387.81,191.14h-2l0,3.26h-1.49l-.06-10.07,3.69,0a3.34,3.34,0,0,1,3.44,3.38,3.27,3.27,0,0,1-2.1,3.17l2.22,3.49h-1.67Zm-2-1.4H388a2,2,0,0,0,0-4h-2.2Z"/><path class="cls-1" d="M400.35,188.89l4.07,5.4h-1.74l-3.29-4.3-1.13,1.28,0,3.05h-1.47l-.07-10.07h1.48l0,4.84,4.21-4.86,1.9,0Z"/><path class="cls-1" d="M410.68,185.59l0,2.79,3.15,0v1.41l-3.15,0,0,3.06,4,0v1.41l-5.53,0-.07-10.07,5.53,0v1.4Z"/><path class="cls-1" d="M425.79,185.49l-2.43,0,.06,8.66h-1.48l-.05-8.66h-2.43v-1.4l6.33,0Z"/><path class="cls-1" d="M446,194l-.71-.69a4.6,4.6,0,0,1-2.78.86c-2.32,0-3.63-1.37-3.64-3a2.91,2.91,0,0,1,1.55-2.6,2.83,2.83,0,0,1-1-2.08c0-1.29,1-2.64,3.12-2.66a2.89,2.89,0,0,1,3,2.92h-1.48a1.46,1.46,0,0,0-1.61-1.52,1.44,1.44,0,0,0-1.58,1.38c0,.71.47,1.15,1.07,1.73l3.13,3.07a3.52,3.52,0,0,0,.51-1.88h-.71v-.75l2.2,0a6.21,6.21,0,0,1-1,3.65l1.6,1.58Zm-1.74-1.69-3-3a1.58,1.58,0,0,0-.9,1.47,2.09,2.09,0,0,0,2.34,1.94A2.89,2.89,0,0,0,444.21,192.34Z"/><path class="cls-1" d="M466.14,185.1a3.77,3.77,0,0,0,.05,7.54,3.88,3.88,0,0,0,2.77-1.11V193a4.46,4.46,0,0,1-3,1A5.18,5.18,0,0,1,466,183.7a4.42,4.42,0,0,1,3,1v1.5A3.85,3.85,0,0,0,466.14,185.1Z"/><path class="cls-1" d="M479.92,191.47l-4.17,0-.83,2.36h-1.53L477,183.77h1.68l3.69,10h-1.53Zm-.5-1.4-1.62-4.38-1.54,4.39Z"/><path class="cls-1" d="M488.37,185.1v2.84l3.44,0v1.4l-3.44,0,0,4.43H487l-.07-10.07,5.52,0v1.41Z"/><path class="cls-1" d="M498.81,185v2.79l3.15,0v1.4l-3.15,0,0,3.07,4,0v1.41l-5.53,0-.06-10.07,5.53,0V185Zm1.85-2.89H499.5l1.13-2.17h1.53Z"/><path class="cls-2" d="M114.41,158H95.16V40.66h19.25Z"/><path class="cls-2" d="M246.93,95.89l-7.51-1.09a28,28,0,0,1,2.82,12.2c0,17.37-14.55,29.73-33.48,29.73a36.8,36.8,0,0,1-11.11-1.56c-1.41,1.09-2.19,2.19-2.19,3.59,0,3.76,5.32,4.54,13.3,4.54,25.19,0,37.55,11.42,37.55,26.13,0,17-17.37,26.13-35.52,26.13s-35.52-9.08-35.52-26.13c0-8.14,3.91-13,8.92-16.27-4.07-2.82-6.88-6.57-6.88-10.95,0-5.79,4.69-10,9.38-12.36A28.09,28.09,0,0,1,175.27,107c0-17.52,14.55-29.73,33.49-29.73a40.05,40.05,0,0,1,16.42,3.45l21.75-1.88Zm-23,11.11c0-8.29-7-13.77-15.17-13.77S193.42,98.71,193.42,107c0,8.14,7.2,13.61,15.34,13.61S223.93,115.14,223.93,107Zm-20.81,52.26h-2c-3.6,1.72-7.67,5.32-7.67,9.7,0,6.73,6.73,10.64,17.37,10.64s17.37-3.29,17.37-9.86C228.16,161.92,218.77,159.26,203.12,159.26Z"/><path class="cls-2" d="M294.66,77.27c13.61,0,24.25,7.2,28.32,16.28l1.09-14.71h18.31V158H324.07L323,143.3c-4.07,9.08-14.71,16.27-28.32,16.27-22.69,0-39.28-18.46-39.28-41.15S272,77.27,294.66,77.27Zm3.28,64.15a23,23,0,1,0-23.31-23A22.64,22.64,0,0,0,297.94,141.42Z"/><path class="cls-2" d="M378.05,158H358.81V40.66h19.24Z"/><path class="cls-2" d="M411.22,158H392V40.66h19.24Z"/><path class="cls-2" d="M424.52,118.42c0-22.68,17.68-41.15,42.56-41.15,24.72,0,42.25,18.47,42.25,41.15s-17.53,41.15-42.25,41.15C442.2,159.57,424.52,141.11,424.52,118.42Zm65.56,0a23.16,23.16,0,1,0-23,23A22.64,22.64,0,0,0,490.08,118.42Z"/><path class="cls-3" d="M83.31,12.58l1.32-.66a1.93,1.93,0,0,0,1.12-1.74c0-.71,0-1.42-.11-2.13,0-.51-.08-1-.11-1.53a5.09,5.09,0,0,0-.1-.94.22.22,0,0,0-.41,0c-.46.86-.9,1.62-1.34,2.41a.15.15,0,0,1-.22,0,1.49,1.49,0,0,1-.53-.73,2.81,2.81,0,0,1-.05-1c0-.35.05-.7.08-1,0-.6.09-1.2.11-1.8a.22.22,0,0,0-.34-.19c-1,.67-.83,1.63-1.69,2a.21.21,0,0,1-.27-.08C79.88,3.66,80.2,2,79.8.46a.22.22,0,0,0-.31-.15c-1.26.63-1,2.07-1.7,3.07a.22.22,0,0,1-.37,0l0-.08c-.06-.13-.12-.26-.19-.39a11.09,11.09,0,0,1-.48-1.12c-.14-.38-.23-.79-.4-1.17A2.81,2.81,0,0,0,76,.05a.12.12,0,0,0-.2,0,2.12,2.12,0,0,0-.25.69c-.15.59-.21,1.21-.35,1.81a1.77,1.77,0,0,1-.81,1.19c-.16.08-.67-.71-.74-.81s-.25-.35-.36-.52-.23-.36-.34-.54l-.34-.54c-.12-.17-.23-.35-.35-.53s-.13-.18-.19-.28S71.91.25,71.8.18s-.28.51-.3.59a6.73,6.73,0,0,0-.12,1.1c0,.33,0,.65,0,1a1,1,0,0,1-.35,1A1.55,1.55,0,0,1,70,4a4.31,4.31,0,0,1-2.9-2l-.23-.4-.06-.09-.1-.15a.14.14,0,0,0-.23,0,4,4,0,0,0-.37,1s0,0,0,.09a5.36,5.36,0,0,0,0,2.29,5.61,5.61,0,0,0,.69,1.74c1,1.63,2.68,2,4.54,1.95.84-.07,1.89,0,2.76,0a.05.05,0,0,1,0,.1c-.7.27-1.39.52-2.1.85-3.15,1.43-5.3,3.9-7.41,6.47a59.6,59.6,0,0,0-7.78,12.5A6.88,6.88,0,0,1,51,32.81c-4.58.39-9.72-.55-13.12-3.87-2.68-2.62-4.06-6.32-6.37-9.27-2.89-3.68-7-6.84-11.75-7.64a15.38,15.38,0,0,0-12.79,3.2C2.73,18.75.88,23.39.22,28.56A39.69,39.69,0,0,0,.44,38.3c.71,6.41,3.4,12.37,6.75,17.81a17,17,0,0,0,1.55,2.22A.15.15,0,0,0,9,58.19c-.08-.29-.17-.59-.25-.89a55.94,55.94,0,0,1-1.51-7s0-.09,0-.13A.15.15,0,0,1,7.44,50a11.18,11.18,0,0,1,2.21,1.74.15.15,0,0,0,.24-.16c-.18-.56-.41-1.23-.52-1.55a33.49,33.49,0,0,1-2.21-9,11.7,11.7,0,0,1,.77-5.59.14.14,0,0,1,.28,0c.1,4.75,2.91,12,3.83,14.16a.14.14,0,0,0,.28-.05c0-1.1,0-2.19,0-3.29a6.79,6.79,0,0,1,.8-3.27.15.15,0,0,1,.28.09,21.24,21.24,0,0,0-.15,3,19,19,0,0,0,.46,3.59,13.92,13.92,0,0,0,1,3.17.15.15,0,0,0,.28,0c.34-1.31.65-2.48.94-3.68a.15.15,0,0,1,.28,0c.06.14.12.27.15.36l.33.93a38.73,38.73,0,0,0,1.83,5.06.15.15,0,0,0,.28,0c.4-2.31.48-5.94.91-7.9l1.64,1.91a13.38,13.38,0,0,0,6.29,4.46,41.14,41.14,0,0,1,11.13,5.88,3.91,3.91,0,0,0,2.34.93.15.15,0,0,1,.09.26l-1.06.92a6.14,6.14,0,0,0-1.28,1.32,2.53,2.53,0,0,0-.36,1.52A26.45,26.45,0,0,1,39,71.23a10.38,10.38,0,0,1-.39,1.87,2.12,2.12,0,0,1-2.31,1.63,1.38,1.38,0,0,0-.49.06c-.15,0-.33.18-.33.36a.32.32,0,0,0,.16.25,1.83,1.83,0,0,0,.52.21l.42.14a2.8,2.8,0,0,1,.65.32,1.49,1.49,0,0,1,.63.93,4,4,0,0,1,.05,1.21,1.1,1.1,0,0,1-.52.5c-.57.37-1.17.72-1.8,1.11a32,32,0,0,0-16.69,11c-11.24,13.94-13.15,35.66-3.74,51a36.48,36.48,0,0,0,23.34,16.26,40.29,40.29,0,0,0,23-1.87,39,39,0,0,0,18.62-15c.42-.65.81-1.31,1.22-2a.15.15,0,0,0,0-.21l-13-7.22a.15.15,0,0,0-.19,0c-.41.51-2.31,2.83-2.55,3.09a30.92,30.92,0,0,1-3.1,3,22.64,22.64,0,0,1-6.78,3.87c-5.06,1.79-12.45,1.9-17.32-.54A20.47,20.47,0,0,1,28.53,131a19.79,19.79,0,0,1-1.3-8.81.15.15,0,0,1,.15-.14l54.71.09c.25,0-.32-9.27-.36-10.18-.66-12.63-6.07-25.38-18.23-30.7l-.37-.15L62.78,81a40.53,40.53,0,0,0-7.1-1.9.15.15,0,0,1-.12-.12c-.59-2.69-1.15-5.36-1.64-8.07a5,5,0,0,1,1.13-4.13c1.18-1.36,2.4-2.65,3.5-4.05a2.93,2.93,0,0,1,1.83-1.06c4.15-.9,7.48-3.15,10.62-5.71a17.44,17.44,0,0,0,5.75-7.6,31,31,0,0,0,1.66-10.13c0-2.36.09-4.72.09-7.1,0-1.27,0-2.54,0-3.8,0-.63.22-1,.83-1.26a6.5,6.5,0,0,0,2.86-2.37,3.14,3.14,0,0,0,.11-3.07,22.19,22.19,0,0,1-1.14-3.2c-.39-1.83-.08-2.1,1.85-1.67a11.3,11.3,0,0,1,1.43.52c.22.09.52.21.61.12s.22-.45.17-.61A9.56,9.56,0,0,0,84.27,14a6,6,0,0,0-1-1.19A.14.14,0,0,1,83.31,12.58ZM42.13,78.13c.17-2.36.41-4.75.56-7.15a2.54,2.54,0,0,1,1.37-2.21c1.31-.67,2.62-1.24,4-1.91a.16.16,0,0,1,.18,0c.36.54.68,1,.95,1.42.51,1,.92,2,1.46,3a3,3,0,0,1,0,2.66c-.23.6-.53,1.2-.85,1.87a.32.32,0,0,0,.19.44c.24.09.48.17.7.23h0a1.68,1.68,0,0,1,1.52,1.93.17.17,0,0,1-.17.13c-.87-.09-1.74-.16-2.6-.2a50.83,50.83,0,0,0-7.23.18.15.15,0,0,1-.16-.15C42.12,78.33,42.13,78.24,42.13,78.13ZM66.73,110a.15.15,0,0,1-.14.17h-39a.14.14,0,0,1-.1,0s0,0,0,0,0,0,0-.09A16.77,16.77,0,0,1,32,98.37c4.37-4.43,11.13-5.84,17.15-5.28,7.62.71,15,5.63,17,13.34A15.55,15.55,0,0,1,66.73,110Z"/></g></g></svg>